<svg width="512" height="512" viewBox="0 0 512 512" fill="none" xmlns="http://www.w3.org/2000/svg">
<path d="M256.571 298.924L295.23 339.314C340.968 384.883 415.312 384.817 460.96 339.161C483.118 317.007 495.314 287.549 495.314 256.22C495.314 224.886 483.114 195.433 460.96 173.278C415.308 127.622 340.956 127.56 295.23 173.126L172.398 295.512C150.768 317.065 115.614 317.032 94.02 295.442C72.3933 273.815 72.3933 238.62 94.02 216.993C104.827 206.186 119.035 200.779 133.246 200.779C147.421 200.779 161.595 206.157 172.398 216.923L188.681 232.035L232.541 188.436L216.039 173.126C170.305 127.56 95.9571 127.63 50.3009 173.283C4.56636 219.017 4.56636 293.431 50.3009 339.165C73.1517 362.02 103.199 373.445 133.246 373.445C163.219 373.445 193.197 362.07 216.035 339.314L338.866 216.927C360.497 195.379 395.655 195.408 417.245 216.998C427.722 227.475 433.493 241.406 433.493 256.224C433.493 271.041 427.722 284.973 417.245 295.45C395.655 317.04 360.493 317.069 338.866 295.52L300.327 255.327L256.571 298.924Z" fill="url(#paint0_linear_1_213)"/>
<defs>
<linearGradient id="paint0_linear_1_213" x1="8.81229" y1="488.467" x2="420.467" y2="436.81" gradientUnits="userSpaceOnUse">
<stop stop-color="#4F67E8"/>
<stop offset="0.336538" stop-color="#2C3A82"/>
</linearGradient>
</defs>
</svg>
