<svg width="267" height="29" viewBox="0 0 267 29" fill="none" xmlns="http://www.w3.org/2000/svg">
<path d="M29.2562 19.4495L24.3265 24.3616C21.5491 27.1288 17.9031 28.512 14.2581 28.512C10.6042 28.5119 6.95007 27.1223 4.17123 24.343C-1.39044 18.7812 -1.39038 9.73198 4.17123 4.17016C9.72354 -1.38165 18.7656 -1.39066 24.3275 4.15063L26.3333 6.01293L21.0003 11.3147L19.0199 9.4768C17.7061 8.16762 15.9819 7.51391 14.2581 7.51391C12.5299 7.51399 10.8018 8.1714 9.48764 9.48559C6.85791 12.1155 6.858 16.3956 9.48764 19.0256C12.1137 21.6512 16.3893 21.6554 19.0199 19.0344L33.9574 4.15063C39.5181 -1.39048 48.5598 -1.38278 54.1117 4.16918C56.8059 6.86339 58.2904 10.4456 58.2904 14.2561C58.2903 18.066 56.8063 21.6488 54.1117 24.343C48.5604 29.8948 39.5196 29.903 33.9574 24.3616L29.2562 19.4495ZM48.7962 9.48657C46.1707 6.86103 41.8945 6.85726 39.264 9.47778L32.0326 16.6829L34.5775 14.1477L39.264 19.0354C41.894 21.6559 46.1707 21.6521 48.7962 19.0266C50.0702 17.7525 50.7718 16.0579 50.7718 14.2561C50.7717 12.4545 50.0701 10.7606 48.7962 9.48657Z" fill="url(#continuum_mark_flow)"/>
<path d="M78.4798 1.41625C84.3038 1.41625 88.3995 5.19201 89.1996 10.4719H83.8236C83.2156 7.30423 80.8802 5.92813 78.2884 5.92797C75.0244 5.92797 72.4964 8.64803 72.4964 13.384C72.4964 18.28 75.0239 20.9035 78.3519 20.9036C80.7199 20.9036 83.3437 19.8796 83.9837 16.3596H89.3597C88.5277 21.7356 84.1757 25.4163 78.3197 25.4163C71.0879 25.4161 66.7044 20.8079 66.7044 13.384C66.7044 6.05608 71.2479 1.41632 78.4798 1.41625ZM102.151 1.41625C109.255 1.41625 114.183 6.18425 114.183 13.4163C114.183 20.6481 109.255 25.4163 102.151 25.4163C95.0149 25.4161 90.1196 20.648 90.1195 13.4163C90.1195 6.18434 95.0149 1.41637 102.151 1.41625ZM200.534 15.6565C200.534 19.0482 201.334 20.9358 205.142 20.9358C208.982 20.9357 209.654 18.76 209.654 15.3362V1.80004H215.125V14.8879C215.125 22.0239 212.374 25.4162 205.142 25.4163C198.198 25.4163 195.062 22.7281 195.062 15.0803V1.80004H200.534V15.6565ZM223.105 15.6565C223.105 19.0482 223.905 20.9358 227.713 20.9358C231.553 20.9357 232.225 18.76 232.225 15.3362V1.80004H237.697V14.8879C237.697 22.0239 234.945 25.4162 227.713 25.4163C220.769 25.4163 217.633 22.7281 217.633 15.0803V1.80004H223.105V15.6565ZM132.003 17.8V1.80004H137.284V25.0002H130.627L121.316 9.00024V25.0002H116.035V1.80004H122.692L132.003 17.8ZM159.946 6.59985H152.49V25.0002H146.986V6.59985H139.561V1.80004H159.946V6.59985ZM167.744 25.0002H162.272V1.80004H167.744V25.0002ZM186.936 17.8V1.80004H192.216V25.0002H185.56L176.248 9.00024V25.0002H170.968V1.80004H177.624L186.936 17.8ZM253.676 18.4397L258.22 1.80004H266.764V25.0002H261.452V6.40844L256.268 25.0002H251.117L245.901 6.43969V25.0002H240.588V1.80004H249.228L253.676 18.4397ZM102.151 5.92797C98.7588 5.92811 95.9115 8.48838 95.9115 13.4163C95.9115 18.344 98.7589 20.9034 102.151 20.9036C105.543 20.9036 108.391 18.3441 108.391 13.4163C108.391 8.48825 105.543 5.92797 102.151 5.92797Z" fill="#FFFFFF"/>
<defs>
<linearGradient id="continuum_mark_flow" x1="0" y1="34" x2="101" y2="-24" gradientUnits="userSpaceOnUse" spreadMethod="repeat">
<stop stop-color="#4F67E8"/>
<stop offset="0.5" stop-color="#FFFFFF"/>
<stop offset="1" stop-color="#4F67E8"/>
<animateTransform attributeName="gradientTransform" type="translate" from="0 0" to="101 -58" dur="7s" repeatCount="indefinite"/>
</linearGradient>
</defs>
</svg>
